<svg width="818" height="779" viewBox="0 0 818 779" fill="none" xmlns="http://www.w3.org/2000/svg">
<circle cx="224.219" cy="679.219" r="3.21875" fill="#3E3E3E"/>
<circle cx="243.531" cy="679.219" r="3.21875" fill="#3E3E3E"/>
<circle cx="262.844" cy="679.219" r="3.21875" fill="#3E3E3E"/>
<circle cx="282.156" cy="679.219" r="3.21875" fill="#3E3E3E"/>
<circle cx="301.469" cy="679.219" r="3.21875" fill="#3E3E3E"/>
<circle cx="320.781" cy="679.219" r="3.21875" fill="#3E3E3E"/>
<circle cx="224.219" cy="698.531" r="3.21875" fill="#3E3E3E"/>
<circle cx="243.531" cy="698.531" r="3.21875" fill="#3E3E3E"/>
<circle cx="262.844" cy="698.531" r="3.21875" fill="#3E3E3E"/>
<circle cx="282.156" cy="698.531" r="3.21875" fill="#3E3E3E"/>
<circle cx="301.469" cy="698.531" r="3.21875" fill="#3E3E3E"/>
<circle cx="320.781" cy="698.531" r="3.21875" fill="#3E3E3E"/>
<circle cx="224.219" cy="717.844" r="3.21875" fill="#3E3E3E"/>
<circle cx="243.531" cy="717.844" r="3.21875" fill="#3E3E3E"/>
<circle cx="262.844" cy="717.844" r="3.21875" fill="#3E3E3E"/>
<circle cx="282.156" cy="717.844" r="3.21875" fill="#3E3E3E"/>
<circle cx="301.469" cy="717.844" r="3.21875" fill="#3E3E3E"/>
<circle cx="320.781" cy="717.844" r="3.21875" fill="#3E3E3E"/>
<circle cx="224.219" cy="737.156" r="3.21875" fill="#3E3E3E"/>
<circle cx="243.531" cy="737.156" r="3.21875" fill="#3E3E3E"/>
<circle cx="262.844" cy="737.156" r="3.21875" fill="#3E3E3E"/>
<circle cx="282.156" cy="737.156" r="3.21875" fill="#3E3E3E"/>
<circle cx="301.469" cy="737.156" r="3.21875" fill="#3E3E3E"/>
<circle cx="320.781" cy="737.156" r="3.21875" fill="#3E3E3E"/>
<circle cx="224.219" cy="756.469" r="3.21875" fill="#3E3E3E"/>
<circle cx="243.531" cy="756.469" r="3.21875" fill="#3E3E3E"/>
<circle cx="262.844" cy="756.469" r="3.21875" fill="#3E3E3E"/>
<circle cx="282.156" cy="756.469" r="3.21875" fill="#3E3E3E"/>
<circle cx="301.469" cy="756.469" r="3.21875" fill="#3E3E3E"/>
<circle cx="320.781" cy="756.469" r="3.21875" fill="#3E3E3E"/>
<circle cx="224.219" cy="775.781" r="3.21875" fill="#3E3E3E"/>
<circle cx="243.531" cy="775.781" r="3.21875" fill="#3E3E3E"/>
<circle cx="262.844" cy="775.781" r="3.21875" fill="#3E3E3E"/>
<circle cx="282.156" cy="775.781" r="3.21875" fill="#3E3E3E"/>
<circle cx="301.469" cy="775.781" r="3.21875" fill="#3E3E3E"/>
<circle cx="320.781" cy="775.781" r="3.21875" fill="#3E3E3E"/>
<rect x="1.5" y="1.5" width="815" height="650" stroke="#636363" stroke-opacity="0.9" stroke-width="3"/>
</svg>
