<svg width="25" height="26" viewBox="0 0 25 26" fill="none" xmlns="http://www.w3.org/2000/svg">
<path d="M22.2837 6.92055C21.5819 7.23196 20.8181 7.45608 20.0314 7.54337C20.8482 7.04425 21.4598 6.25573 21.7516 5.32575C20.9851 5.79472 20.1455 6.12358 19.2699 6.29772C18.9039 5.89531 18.4613 5.57473 17.9696 5.35596C17.4779 5.13719 16.9477 5.02492 16.412 5.02613C14.2445 5.02613 12.5014 6.83326 12.5014 9.05088C12.5014 9.36229 12.5381 9.6737 12.5977 9.97331C9.35219 9.79873 6.45762 8.20393 4.53326 5.76219C4.18262 6.37821 3.99887 7.07961 4.00114 7.79344C4.00114 9.19007 4.69152 10.4216 5.7443 11.1458C5.12388 11.1207 4.51799 10.9453 3.97591 10.6339V10.6834C3.97591 12.6392 5.31998 14.2599 7.11131 14.6327C6.77497 14.7225 6.42897 14.7685 6.08147 14.7695C5.82687 14.7695 5.58604 14.7436 5.34291 14.7082C5.83834 16.303 7.28104 17.4613 8.99897 17.4991C7.6549 18.5819 5.97137 19.2189 4.14334 19.2189C3.81535 19.2189 3.51259 19.2071 3.19836 19.1694C4.93235 20.3136 6.98975 20.9741 9.2054 20.9741C16.3982 20.9741 20.3341 14.845 20.3341 9.52507C20.3341 9.35049 20.3341 9.17591 20.3227 9.00133C21.0841 8.42805 21.7516 7.71795 22.2837 6.92055Z" fill="#08090A"/>
</svg>
