<svg width="25" height="25" viewBox="0 0 25 25" fill="none" xmlns="http://www.w3.org/2000/svg">
<path d="M12.0789 7.24033C9.40129 7.24033 7.24029 9.40132 7.24029 12.079C7.24029 14.7566 9.40129 16.9176 12.0789 16.9176C14.7566 16.9176 16.9176 14.7566 16.9176 12.079C16.9176 9.40132 14.7566 7.24033 12.0789 7.24033ZM12.0789 15.2238C10.3473 15.2238 8.93417 13.8106 8.93417 12.079C8.93417 10.3474 10.3473 8.93421 12.0789 8.93421C13.8106 8.93421 15.2237 10.3474 15.2237 12.079C15.2237 13.8106 13.8106 15.2238 12.0789 15.2238ZM17.1158 5.91447C16.4906 5.91447 15.9857 6.41934 15.9857 7.04452C15.9857 7.66969 16.4906 8.17456 17.1158 8.17456C17.741 8.17456 18.2458 7.67205 18.2458 7.04452C18.246 6.89606 18.2169 6.74903 18.1602 6.61185C18.1034 6.47466 18.0202 6.35001 17.9152 6.24504C17.8103 6.14007 17.6856 6.05684 17.5484 6.00011C17.4113 5.94339 17.2642 5.91429 17.1158 5.91447V5.91447ZM21.5109 12.079C21.5109 10.7767 21.5227 9.48625 21.4496 8.18635C21.3764 6.67648 21.032 5.33648 19.9279 4.23239C18.8215 3.12594 17.4838 2.78386 15.9739 2.71072C14.6717 2.63759 13.3812 2.64938 12.0813 2.64938C10.779 2.64938 9.48858 2.63759 8.18867 2.71072C6.6788 2.78386 5.3388 3.12829 4.23471 4.23239C3.12825 5.33884 2.78618 6.67648 2.71304 8.18635C2.63991 9.48861 2.6517 10.7791 2.6517 12.079C2.6517 13.3789 2.63991 14.6717 2.71304 15.9716C2.78618 17.4815 3.13061 18.8215 4.23471 19.9256C5.34116 21.032 6.6788 21.3741 8.18867 21.4472C9.49093 21.5204 10.7814 21.5086 12.0813 21.5086C13.3836 21.5086 14.674 21.5204 15.9739 21.4472C17.4838 21.3741 18.8238 21.0297 19.9279 19.9256C21.0344 18.8191 21.3764 17.4815 21.4496 15.9716C21.5251 14.6717 21.5109 13.3812 21.5109 12.079V12.079ZM19.4348 17.6419C19.2626 18.0713 19.055 18.3921 18.7224 18.7224C18.3897 19.055 18.0712 19.2627 17.6419 19.4349C16.4009 19.9279 13.4543 19.8171 12.0789 19.8171C10.7035 19.8171 7.75459 19.9279 6.51366 19.4372C6.08429 19.265 5.76345 19.0574 5.43316 18.7248C5.10052 18.3921 4.89291 18.0736 4.72069 17.6443C4.22999 16.401 4.34087 13.4544 4.34087 12.079C4.34087 10.7036 4.22999 7.75462 4.72069 6.5137C4.89291 6.08433 5.10052 5.76349 5.43316 5.4332C5.76581 5.10292 6.08429 4.89295 6.51366 4.72073C7.75459 4.23003 10.7035 4.34091 12.0789 4.34091C13.4543 4.34091 16.4033 4.23003 17.6442 4.72073C18.0736 4.89295 18.3944 5.10056 18.7247 5.4332C19.0574 5.76585 19.265 6.08433 19.4372 6.5137C19.9279 7.75462 19.817 10.7036 19.817 12.079C19.817 13.4544 19.9279 16.401 19.4348 17.6419Z" fill="white"/>
</svg>
