<svg width="24" height="26" viewBox="0 0 24 26" fill="none" xmlns="http://www.w3.org/2000/svg">
<path d="M20.6959 3.56348H3.81477C3.4088 3.56348 3.08081 3.90084 3.08081 4.31841V21.6819C3.08081 22.0995 3.4088 22.4368 3.81477 22.4368H20.6959C21.1019 22.4368 21.4299 22.0995 21.4299 21.6819V4.31841C21.4299 3.90084 21.1019 3.56348 20.6959 3.56348ZM19.962 20.927H15.7394V15.1281H18.1248L18.4826 12.2806H15.7394V10.4617C15.7394 9.63598 15.9619 9.0745 17.111 9.0745H18.5766V6.52659C18.322 6.49121 17.4527 6.41335 16.439 6.41335C14.3242 6.41335 12.8769 7.74157 12.8769 10.1786V12.2782H10.487V15.1258H12.8792V20.927H4.54874V5.07335H19.962V20.927Z" fill="#08090A"/>
</svg>
