<svg width="25" height="26" viewBox="0 0 25 26" fill="none" xmlns="http://www.w3.org/2000/svg">
<path d="M23.1337 12.9341C23.1337 12.8822 23.1337 12.8232 23.1313 12.7548C23.129 12.5637 23.1243 12.349 23.1195 12.1202C23.1007 11.462 23.0676 10.8061 23.0157 10.188C22.945 9.33636 22.8412 8.62625 22.6996 8.09307C22.5502 7.53666 22.2574 7.0292 21.8505 6.62142C21.4435 6.21363 20.9367 5.9198 20.3806 5.76929C19.7129 5.59 18.4059 5.47911 16.5658 5.4107C15.6905 5.37767 14.7539 5.35644 13.8173 5.34464C13.4894 5.33992 13.1851 5.33756 12.9114 5.33521H12.2178C11.9442 5.33756 11.6398 5.33992 11.3119 5.34464C10.3753 5.35644 9.43872 5.37767 8.56347 5.4107C6.72332 5.48147 5.41398 5.59235 4.74869 5.76929C4.19241 5.91943 3.68535 6.21314 3.27833 6.62098C2.87131 7.02882 2.57864 7.53648 2.42963 8.09307C2.28572 8.62625 2.18428 9.33636 2.1135 10.188C2.0616 10.8061 2.02857 11.462 2.0097 12.1202C2.00262 12.349 2.00026 12.5637 1.9979 12.7548C1.9979 12.8232 1.99554 12.8822 1.99554 12.9341V13.0662C1.99554 13.1181 1.99554 13.1771 1.9979 13.2455C2.00026 13.4366 2.00498 13.6513 2.0097 13.8801C2.02857 14.5383 2.0616 15.1942 2.1135 15.8123C2.18428 16.6639 2.28808 17.374 2.42963 17.9072C2.73161 19.0373 3.61865 19.929 4.74869 20.231C5.41398 20.4103 6.72332 20.5212 8.56347 20.5896C9.43872 20.6226 10.3753 20.6439 11.3119 20.6557C11.6398 20.6604 11.9442 20.6627 12.2178 20.6651H12.9114C13.1851 20.6627 13.4894 20.6604 13.8173 20.6557C14.7539 20.6439 15.6905 20.6226 16.5658 20.5896C18.4059 20.5188 19.7153 20.4079 20.3806 20.231C21.5106 19.929 22.3976 19.0396 22.6996 17.9072C22.8435 17.374 22.945 16.6639 23.0157 15.8123C23.0676 15.1942 23.1007 14.5383 23.1195 13.8801C23.1266 13.6513 23.129 13.4366 23.1313 13.2455C23.1313 13.1771 23.1337 13.1181 23.1337 13.0662V12.9341V12.9341ZM21.4351 13.0568C21.4351 13.1063 21.4351 13.1606 21.4327 13.2243C21.4304 13.4083 21.4257 13.6112 21.4209 13.8306C21.4044 14.4581 21.3714 15.0857 21.3219 15.6684C21.2582 16.428 21.1685 17.0508 21.0576 17.4684C20.9114 18.0134 20.482 18.4451 19.9394 18.589C19.444 18.7211 18.196 18.8273 16.4997 18.891C15.641 18.924 14.7162 18.9453 13.7937 18.9571C13.4705 18.9618 13.1709 18.9641 12.902 18.9641H12.2273L11.3355 18.9571C10.4131 18.9453 9.49063 18.924 8.62953 18.891C6.93329 18.8249 5.68293 18.7211 5.18986 18.589C4.64725 18.4428 4.21788 18.0134 4.07161 17.4684C3.96073 17.0508 3.87108 16.428 3.80739 15.6684C3.75784 15.0857 3.72717 14.4581 3.7083 13.8306C3.70122 13.6112 3.69886 13.4059 3.69651 13.2243C3.69651 13.1606 3.69415 13.104 3.69415 13.0568V12.9435C3.69415 12.894 3.69415 12.8397 3.69651 12.776C3.69886 12.592 3.70358 12.3891 3.7083 12.1697C3.72482 11.5422 3.75784 10.9146 3.80739 10.3319C3.87108 9.57227 3.96073 8.94945 4.07161 8.53188C4.21788 7.98691 4.64725 7.55518 5.18986 7.41127C5.68529 7.27916 6.93329 7.173 8.62953 7.1093C9.48827 7.07627 10.4131 7.05504 11.3355 7.04324C11.6587 7.03853 11.9583 7.03617 12.2273 7.03617H12.902L13.7937 7.04324C14.7162 7.05504 15.6386 7.07627 16.4997 7.1093C18.196 7.17536 19.4463 7.27916 19.9394 7.41127C20.482 7.55754 20.9114 7.98691 21.0576 8.53188C21.1685 8.94945 21.2582 9.57227 21.3219 10.3319C21.3714 10.9146 21.4021 11.5422 21.4209 12.1697C21.428 12.3891 21.4304 12.5944 21.4327 12.776C21.4327 12.8397 21.4351 12.8963 21.4351 12.9435V13.0568ZM10.465 16.1614L15.9382 12.9766L10.465 9.83886V16.1614Z" fill="#08090A"/>
</svg>
