<svg width="25" height="26" viewBox="0 0 25 26" fill="none" xmlns="http://www.w3.org/2000/svg">
<path d="M12.433 8.16147C9.75535 8.16147 7.59435 10.3225 7.59435 13.0001C7.59435 15.6778 9.75535 17.8388 12.433 17.8388C15.1107 17.8388 17.2717 15.6778 17.2717 13.0001C17.2717 10.3225 15.1107 8.16147 12.433 8.16147ZM12.433 16.1449C10.7014 16.1449 9.28824 14.7318 9.28824 13.0001C9.28824 11.2685 10.7014 9.85535 12.433 9.85535C14.1646 9.85535 15.5778 11.2685 15.5778 13.0001C15.5778 14.7318 14.1646 16.1449 12.433 16.1449ZM17.4698 6.83562C16.8447 6.83562 16.3398 7.34048 16.3398 7.96566C16.3398 8.59084 16.8447 9.0957 17.4698 9.0957C18.095 9.0957 18.5999 8.5932 18.5999 7.96566C18.6001 7.81721 18.571 7.67018 18.5142 7.53299C18.4575 7.3958 18.3743 7.27115 18.2693 7.16618C18.1643 7.06121 18.0397 6.97798 17.9025 6.92126C17.7653 6.86453 17.6183 6.83543 17.4698 6.83562V6.83562ZM21.865 13.0001C21.865 11.6979 21.8768 10.4074 21.8036 9.1075C21.7305 7.59763 21.3861 6.25762 20.282 5.15353C19.1755 4.04708 17.8379 3.705 16.328 3.63186C15.0257 3.55873 13.7353 3.57053 12.4354 3.57053C11.1331 3.57053 9.84264 3.55873 8.54274 3.63186C7.03287 3.705 5.69286 4.04944 4.58877 5.15353C3.48232 6.25998 3.14024 7.59763 3.06711 9.1075C2.99397 10.4098 3.00577 11.7002 3.00577 13.0001C3.00577 14.3 2.99397 15.5929 3.06711 16.8928C3.14024 18.4026 3.48468 19.7426 4.58877 20.8467C5.69522 21.9532 7.03287 22.2952 8.54274 22.3684C9.845 22.4415 11.1355 22.4297 12.4354 22.4297C13.7376 22.4297 15.0281 22.4415 16.328 22.3684C17.8379 22.2952 19.1779 21.9508 20.282 20.8467C21.3884 19.7403 21.7305 18.4026 21.8036 16.8928C21.8791 15.5929 21.865 14.3024 21.865 13.0001V13.0001ZM19.7889 18.563C19.6167 18.9924 19.4091 19.3133 19.0764 19.6435C18.7438 19.9762 18.4253 20.1838 17.9959 20.356C16.755 20.8491 13.8084 20.7382 12.433 20.7382C11.0576 20.7382 8.10865 20.8491 6.86773 20.3584C6.43836 20.1862 6.11751 19.9785 5.78723 19.6459C5.45459 19.3133 5.24698 18.9948 5.07476 18.5654C4.58405 17.3221 4.69493 14.3755 4.69493 13.0001C4.69493 11.6247 4.58405 8.67577 5.07476 7.43484C5.24698 7.00548 5.45459 6.68463 5.78723 6.35435C6.11987 6.02406 6.43836 5.8141 6.86773 5.64188C8.10865 5.15117 11.0576 5.26205 12.433 5.26205C13.8084 5.26205 16.7574 5.15117 17.9983 5.64188C18.4277 5.8141 18.7485 6.0217 19.0788 6.35435C19.4114 6.68699 19.619 7.00548 19.7913 7.43484C20.282 8.67577 20.1711 11.6247 20.1711 13.0001C20.1711 14.3755 20.282 17.3221 19.7889 18.563Z" fill="#08090A"/>
</svg>
