<svg width="25" height="25" viewBox="0 0 25 25" fill="none" xmlns="http://www.w3.org/2000/svg">
<path d="M12.0789 7.2403C9.40129 7.2403 7.24029 9.40129 7.24029 12.079C7.24029 14.7566 9.40129 16.9176 12.0789 16.9176C14.7566 16.9176 16.9176 14.7566 16.9176 12.079C16.9176 9.40129 14.7566 7.2403 12.0789 7.2403ZM12.0789 15.2237C10.3473 15.2237 8.93417 13.8106 8.93417 12.079C8.93417 10.3473 10.3473 8.93418 12.0789 8.93418C13.8106 8.93418 15.2237 10.3473 15.2237 12.079C15.2237 13.8106 13.8106 15.2237 12.0789 15.2237ZM17.1158 5.91444C16.4906 5.91444 15.9857 6.4193 15.9857 7.04448C15.9857 7.66966 16.4906 8.17453 17.1158 8.17453C17.741 8.17453 18.2458 7.67202 18.2458 7.04448C18.246 6.89603 18.2169 6.749 18.1602 6.61182C18.1034 6.47463 18.0202 6.34998 17.9152 6.24501C17.8103 6.14004 17.6856 6.05681 17.5484 6.00008C17.4113 5.94336 17.2642 5.91426 17.1158 5.91444V5.91444ZM21.5109 12.079C21.5109 10.7767 21.5227 9.48622 21.4496 8.18632C21.3764 6.67645 21.032 5.33645 19.9279 4.23236C18.8215 3.1259 17.4838 2.78383 15.9739 2.71069C14.6717 2.63756 13.3812 2.64935 12.0813 2.64935C10.779 2.64935 9.48858 2.63756 8.18867 2.71069C6.6788 2.78383 5.3388 3.12826 4.23471 4.23236C3.12825 5.33881 2.78618 6.67645 2.71304 8.18632C2.63991 9.48858 2.6517 10.779 2.6517 12.079C2.6517 13.3789 2.63991 14.6717 2.71304 15.9716C2.78618 17.4814 3.13061 18.8215 4.23471 19.9255C5.34116 21.032 6.6788 21.3741 8.18867 21.4472C9.49093 21.5203 10.7814 21.5085 12.0813 21.5085C13.3836 21.5085 14.674 21.5203 15.9739 21.4472C17.4838 21.3741 18.8238 21.0296 19.9279 19.9255C21.0344 18.8191 21.3764 17.4814 21.4496 15.9716C21.5251 14.6717 21.5109 13.3812 21.5109 12.079V12.079ZM19.4348 17.6419C19.2626 18.0712 19.055 18.3921 18.7224 18.7224C18.3897 19.055 18.0712 19.2626 17.6419 19.4348C16.4009 19.9279 13.4543 19.817 12.0789 19.817C10.7035 19.817 7.75459 19.9279 6.51366 19.4372C6.08429 19.265 5.76345 19.0574 5.43316 18.7247C5.10052 18.3921 4.89291 18.0736 4.72069 17.6442C4.22999 16.4009 4.34087 13.4543 4.34087 12.079C4.34087 10.7036 4.22999 7.75459 4.72069 6.51367C4.89291 6.0843 5.10052 5.76346 5.43316 5.43317C5.76581 5.10289 6.08429 4.89292 6.51366 4.7207C7.75459 4.23 10.7035 4.34088 12.0789 4.34088C13.4543 4.34088 16.4033 4.23 17.6442 4.7207C18.0736 4.89292 18.3944 5.10053 18.7247 5.43317C19.0574 5.76582 19.265 6.0843 19.4372 6.51367C19.9279 7.75459 19.817 10.7036 19.817 12.079C19.817 13.4543 19.9279 16.4009 19.4348 17.6419Z" fill="white"/>
</svg>
