<svg width="25" height="25" viewBox="0 0 25 25" fill="none" xmlns="http://www.w3.org/2000/svg">
<path d="M21.9297 5.9994C21.2278 6.31081 20.4641 6.53493 19.6773 6.62222C20.4941 6.12311 21.1058 5.33459 21.3976 4.4046C20.6311 4.87358 19.7915 5.20244 18.9158 5.37658C18.5499 4.97417 18.1073 4.65359 17.6156 4.43482C17.1239 4.21605 16.5937 4.10377 16.058 4.10499C13.8905 4.10499 12.1473 5.91211 12.1473 8.12973C12.1473 8.44114 12.184 8.75255 12.2437 9.05217C8.99816 8.87759 6.10359 7.28279 4.17923 4.84105C3.82859 5.45707 3.64485 6.15847 3.64711 6.8723C3.64711 8.26892 4.33749 9.50041 5.39027 10.2247C4.76985 10.1995 4.16396 10.0241 3.62188 9.71274V9.76228C3.62188 11.718 4.96595 13.3388 6.75728 13.7115C6.42094 13.8014 6.07494 13.8474 5.72744 13.8484C5.47284 13.8484 5.23201 13.8224 4.98889 13.787C5.48431 15.3818 6.92701 16.5402 8.64494 16.5779C7.30087 17.6608 5.61734 18.2978 3.78931 18.2978C3.46132 18.2978 3.15856 18.286 2.84434 18.2482C4.57832 19.3924 6.63572 20.053 8.85137 20.053C16.0442 20.053 19.9801 13.9239 19.9801 8.60393C19.9801 8.42935 19.9801 8.25477 19.9686 8.08019C20.7301 7.50691 21.3976 6.7968 21.9297 5.9994Z" fill="white"/>
</svg>
