<svg width="25" height="25" viewBox="0 0 25 25" fill="none" xmlns="http://www.w3.org/2000/svg">
<path d="M12.0789 7.24008C9.40129 7.24008 7.24029 9.40108 7.24029 12.0787C7.24029 14.7564 9.40129 16.9174 12.0789 16.9174C14.7566 16.9174 16.9176 14.7564 16.9176 12.0787C16.9176 9.40108 14.7566 7.24008 12.0789 7.24008ZM12.0789 15.2235C10.3473 15.2235 8.93417 13.8104 8.93417 12.0787C8.93417 10.3471 10.3473 8.93397 12.0789 8.93397C13.8106 8.93397 15.2237 10.3471 15.2237 12.0787C15.2237 13.8104 13.8106 15.2235 12.0789 15.2235ZM17.1158 5.91423C16.4906 5.91423 15.9857 6.41909 15.9857 7.04427C15.9857 7.66945 16.4906 8.17431 17.1158 8.17431C17.741 8.17431 18.2458 7.67181 18.2458 7.04427C18.246 6.89582 18.2169 6.74879 18.1602 6.6116C18.1034 6.47442 18.0202 6.34977 17.9152 6.2448C17.8103 6.13982 17.6856 6.05659 17.5484 5.99987C17.4113 5.94314 17.2642 5.91404 17.1158 5.91423V5.91423ZM21.5109 12.0787C21.5109 10.7765 21.5227 9.48601 21.4496 8.18611C21.3764 6.67624 21.032 5.33623 19.9279 4.23214C18.8215 3.12569 17.4838 2.78361 15.9739 2.71048C14.6717 2.63734 13.3812 2.64914 12.0813 2.64914C10.779 2.64914 9.48858 2.63734 8.18867 2.71048C6.6788 2.78361 5.3388 3.12805 4.23471 4.23214C3.12825 5.33859 2.78618 6.67624 2.71304 8.18611C2.63991 9.48837 2.6517 10.7788 2.6517 12.0787C2.6517 13.3786 2.63991 14.6715 2.71304 15.9714C2.78618 17.4812 3.13061 18.8212 4.23471 19.9253C5.34116 21.0318 6.6788 21.3739 8.18867 21.447C9.49093 21.5201 10.7814 21.5083 12.0813 21.5083C13.3836 21.5083 14.674 21.5201 15.9739 21.447C17.4838 21.3739 18.8238 21.0294 19.9279 19.9253C21.0344 18.8189 21.3764 17.4812 21.4496 15.9714C21.5251 14.6715 21.5109 13.381 21.5109 12.0787V12.0787ZM19.4348 17.6417C19.2626 18.071 19.055 18.3919 18.7224 18.7222C18.3897 19.0548 18.0712 19.2624 17.6419 19.4346C16.4009 19.9277 13.4543 19.8168 12.0789 19.8168C10.7035 19.8168 7.75459 19.9277 6.51366 19.437C6.08429 19.2648 5.76345 19.0572 5.43316 18.7245C5.10052 18.3919 4.89291 18.0734 4.72069 17.644C4.22999 16.4007 4.34087 13.4541 4.34087 12.0787C4.34087 10.7033 4.22999 7.75438 4.72069 6.51346C4.89291 6.08409 5.10052 5.76324 5.43316 5.43296C5.76581 5.10268 6.08429 4.89271 6.51366 4.72049C7.75459 4.22978 10.7035 4.34066 12.0789 4.34066C13.4543 4.34066 16.4033 4.22978 17.6442 4.72049C18.0736 4.89271 18.3944 5.10032 18.7247 5.43296C19.0574 5.7656 19.265 6.08409 19.4372 6.51346C19.9279 7.75438 19.817 10.7033 19.817 12.0787C19.817 13.4541 19.9279 16.4007 19.4348 17.6417Z" fill="white"/>
</svg>
