<svg width="25" height="26" viewBox="0 0 25 26" fill="none" xmlns="http://www.w3.org/2000/svg">
<path d="M12.433 8.16135C9.75535 8.16135 7.59435 10.3223 7.59435 13C7.59435 15.6777 9.75535 17.8387 12.433 17.8387C15.1107 17.8387 17.2717 15.6777 17.2717 13C17.2717 10.3223 15.1107 8.16135 12.433 8.16135ZM12.433 16.1448C10.7014 16.1448 9.28824 14.7316 9.28824 13C9.28824 11.2684 10.7014 9.85523 12.433 9.85523C14.1646 9.85523 15.5778 11.2684 15.5778 13C15.5778 14.7316 14.1646 16.1448 12.433 16.1448ZM17.4698 6.83549C16.8447 6.83549 16.3398 7.34036 16.3398 7.96554C16.3398 8.59072 16.8447 9.09558 17.4698 9.09558C18.095 9.09558 18.5999 8.59307 18.5999 7.96554C18.6001 7.81708 18.571 7.67005 18.5142 7.53287C18.4575 7.39568 18.3743 7.27103 18.2693 7.16606C18.1643 7.06109 18.0397 6.97786 17.9025 6.92113C17.7653 6.86441 17.6183 6.83531 17.4698 6.83549V6.83549ZM21.865 13C21.865 11.6977 21.8768 10.4073 21.8036 9.10737C21.7305 7.59751 21.3861 6.2575 20.282 5.15341C19.1755 4.04696 17.8379 3.70488 16.328 3.63174C15.0257 3.55861 13.7353 3.5704 12.4354 3.5704C11.1331 3.5704 9.84264 3.55861 8.54274 3.63174C7.03287 3.70488 5.69286 4.04932 4.58877 5.15341C3.48232 6.25986 3.14024 7.59751 3.06711 9.10737C2.99397 10.4096 3.00577 11.7001 3.00577 13C3.00577 14.2999 2.99397 15.5927 3.06711 16.8926C3.14024 18.4025 3.48468 19.7425 4.58877 20.8466C5.69522 21.953 7.03287 22.2951 8.54274 22.3683C9.845 22.4414 11.1355 22.4296 12.4354 22.4296C13.7376 22.4296 15.0281 22.4414 16.328 22.3683C17.8379 22.2951 19.1779 21.9507 20.282 20.8466C21.3884 19.7401 21.7305 18.4025 21.8036 16.8926C21.8791 15.5927 21.865 14.3023 21.865 13V13ZM19.7889 18.5629C19.6167 18.9923 19.4091 19.3131 19.0764 19.6434C18.7438 19.9761 18.4253 20.1837 17.9959 20.3559C16.755 20.849 13.8084 20.7381 12.433 20.7381C11.0576 20.7381 8.10865 20.849 6.86773 20.3583C6.43836 20.186 6.11751 19.9784 5.78723 19.6458C5.45459 19.3131 5.24698 18.9947 5.07476 18.5653C4.58405 17.322 4.69493 14.3754 4.69493 13C4.69493 11.6246 4.58405 8.67565 5.07476 7.43472C5.24698 7.00535 5.45459 6.68451 5.78723 6.35422C6.11987 6.02394 6.43836 5.81397 6.86773 5.64175C8.10865 5.15105 11.0576 5.26193 12.433 5.26193C13.8084 5.26193 16.7574 5.15105 17.9983 5.64175C18.4277 5.81397 18.7485 6.02158 19.0788 6.35422C19.4114 6.68687 19.619 7.00535 19.7913 7.43472C20.282 8.67565 20.1711 11.6246 20.1711 13C20.1711 14.3754 20.282 17.322 19.7889 18.5629Z" fill="#08090A"/>
</svg>
