<svg width="25" height="25" viewBox="0 0 25 25" fill="none" xmlns="http://www.w3.org/2000/svg">
<path d="M22.648 12.0129C22.648 11.961 22.648 11.902 22.6457 11.8336C22.6433 11.6425 22.6386 11.4278 22.6339 11.199C22.615 10.5408 22.582 9.88492 22.5301 9.26681C22.4593 8.41515 22.3555 7.70504 22.214 7.17187C22.0646 6.61546 21.7718 6.108 21.3648 5.70021C20.9579 5.29243 20.451 4.99859 19.8949 4.84809C19.2272 4.66879 17.9203 4.55791 16.0801 4.48949C15.2049 4.45647 14.2683 4.43523 13.3317 4.42344C13.0038 4.41872 12.6994 4.41636 12.4258 4.414H11.7322C11.4585 4.41636 11.1542 4.41872 10.8262 4.42344C9.88966 4.43523 8.95307 4.45647 8.07782 4.48949C6.23766 4.56027 4.92832 4.67115 4.26304 4.84809C3.70675 4.99822 3.19969 5.29193 2.79267 5.69978C2.38566 6.10762 2.09298 6.61528 1.94397 7.17187C1.80007 7.70504 1.69862 8.41515 1.62785 9.26681C1.57594 9.88492 1.54292 10.5408 1.52404 11.199C1.51697 11.4278 1.51461 11.6425 1.51225 11.8336C1.51225 11.902 1.50989 11.961 1.50989 12.0129V12.145C1.50989 12.1969 1.50989 12.2559 1.51225 12.3243C1.51461 12.5154 1.51932 12.7301 1.52404 12.9589C1.54292 13.6171 1.57594 14.273 1.62785 14.8911C1.69862 15.7427 1.80242 16.4528 1.94397 16.986C2.24595 18.1161 3.133 19.0078 4.26304 19.3098C4.92832 19.4891 6.23766 19.6 8.07782 19.6684C8.95307 19.7014 9.88966 19.7227 10.8262 19.7344C11.1542 19.7392 11.4585 19.7415 11.7322 19.7439H12.4258C12.6994 19.7415 13.0038 19.7392 13.3317 19.7344C14.2683 19.7227 15.2049 19.7014 16.0801 19.6684C17.9203 19.5976 19.2296 19.4867 19.8949 19.3098C21.0249 19.0078 21.912 18.1184 22.214 16.986C22.3579 16.4528 22.4593 15.7427 22.5301 14.8911C22.582 14.273 22.615 13.6171 22.6339 12.9589C22.641 12.7301 22.6433 12.5154 22.6457 12.3243C22.6457 12.2559 22.648 12.1969 22.648 12.145V12.0129V12.0129ZM20.9494 12.1356C20.9494 12.1851 20.9494 12.2394 20.9471 12.3031C20.9447 12.4871 20.94 12.69 20.9353 12.9094C20.9188 13.5369 20.8857 14.1644 20.8362 14.7472C20.7725 15.5068 20.6829 16.1296 20.572 16.5472C20.4257 17.0922 19.9963 17.5239 19.4537 17.6678C18.9583 17.7999 17.7103 17.9061 16.0141 17.9698C15.1553 18.0028 14.2305 18.0241 13.3081 18.0358C12.9849 18.0406 12.6853 18.0429 12.4163 18.0429H11.7416L10.8498 18.0358C9.9274 18.0241 9.00497 18.0028 8.14387 17.9698C6.44763 17.9037 5.19727 17.7999 4.7042 17.6678C4.16159 17.5215 3.73223 17.0922 3.58596 16.5472C3.47508 16.1296 3.38543 15.5068 3.32173 14.7472C3.27219 14.1644 3.24152 13.5369 3.22264 12.9094C3.21557 12.69 3.21321 12.4847 3.21085 12.3031C3.21085 12.2394 3.20849 12.1827 3.20849 12.1356V12.0223C3.20849 11.9728 3.20849 11.9185 3.21085 11.8548C3.21321 11.6708 3.21793 11.4679 3.22264 11.2485C3.23916 10.621 3.27219 9.99344 3.32173 9.41072C3.38543 8.65107 3.47508 8.02825 3.58596 7.61068C3.73223 7.06571 4.16159 6.63398 4.7042 6.49007C5.19963 6.35796 6.44763 6.25179 8.14387 6.1881C9.00261 6.15507 9.9274 6.13384 10.8498 6.12204C11.173 6.11732 11.4727 6.11496 11.7416 6.11496H12.4163L13.3081 6.12204C14.2305 6.13384 15.153 6.15507 16.0141 6.1881C17.7103 6.25415 18.9607 6.35796 19.4537 6.49007C19.9963 6.63634 20.4257 7.06571 20.572 7.61068C20.6829 8.02825 20.7725 8.65107 20.8362 9.41072C20.8857 9.99344 20.9164 10.621 20.9353 11.2485C20.9424 11.4679 20.9447 11.6732 20.9471 11.8548C20.9471 11.9185 20.9494 11.9751 20.9494 12.0223V12.1356ZM9.97931 15.2402L15.4526 12.0554L9.97931 8.91766V15.2402Z" fill="white"/>
</svg>
