<svg width="24" height="25" viewBox="0 0 24 25" fill="none" xmlns="http://www.w3.org/2000/svg">
<path d="M20.3419 2.64233H3.46073C3.05476 2.64233 2.72677 2.9797 2.72677 3.39727V20.7608C2.72677 21.1783 3.05476 21.5157 3.46073 21.5157H20.3419C20.7479 21.5157 21.0759 21.1783 21.0759 20.7608V3.39727C21.0759 2.9797 20.7479 2.64233 20.3419 2.64233ZM19.6079 20.0058H15.3854V14.207H17.7707L18.1285 11.3595H15.3854V9.54055C15.3854 8.71484 15.6078 8.15335 16.7569 8.15335H18.2226V5.60545C17.968 5.57006 17.0987 5.49221 16.0849 5.49221C13.9702 5.49221 12.5229 6.82042 12.5229 9.25745V11.3571H10.1329V14.2046H12.5252V20.0058H4.1947V4.1522H19.6079V20.0058Z" fill="white"/>
</svg>
