<svg width="24" height="25" viewBox="0 0 24 25" fill="none" xmlns="http://www.w3.org/2000/svg">
<path d="M20.3419 2.64209H3.46073C3.05476 2.64209 2.72677 2.97945 2.72677 3.39702V20.7605C2.72677 21.1781 3.05476 21.5154 3.46073 21.5154H20.3419C20.7479 21.5154 21.0759 21.1781 21.0759 20.7605V3.39702C21.0759 2.97945 20.7479 2.64209 20.3419 2.64209ZM19.6079 20.0056H15.3854V14.2067H17.7707L18.1285 11.3592H15.3854V9.5403C15.3854 8.71459 15.6078 8.15311 16.7569 8.15311H18.2226V5.60521C17.968 5.56982 17.0987 5.49197 16.0849 5.49197C13.9702 5.49197 12.5229 6.82018 12.5229 9.2572V11.3569H10.1329V14.2044H12.5252V20.0056H4.1947V4.15196H19.6079V20.0056Z" fill="white"/>
</svg>
