<svg width="24" height="26" viewBox="0 0 24 26" fill="none" xmlns="http://www.w3.org/2000/svg">
<path d="M20.6959 3.56332H3.81477C3.4088 3.56332 3.08081 3.90069 3.08081 4.31826V21.6817C3.08081 22.0993 3.4088 22.4367 3.81477 22.4367H20.6959C21.1019 22.4367 21.4299 22.0993 21.4299 21.6817V4.31826C21.4299 3.90069 21.1019 3.56332 20.6959 3.56332ZM19.962 20.9268H15.7394V15.128H18.1248L18.4826 12.2805H15.7394V10.4615C15.7394 9.63583 15.9619 9.07434 17.111 9.07434H18.5766V6.52644C18.322 6.49105 17.4527 6.4132 16.439 6.4132C14.3242 6.4132 12.8769 7.74141 12.8769 10.1784V12.2781H10.487V15.1256H12.8792V20.9268H4.54874V5.07319H19.962V20.9268Z" fill="#08090A"/>
</svg>
