<svg width="25" height="25" viewBox="0 0 25 25" fill="none" xmlns="http://www.w3.org/2000/svg">
<path d="M22.648 12.0129C22.648 11.961 22.648 11.9021 22.6457 11.8337C22.6433 11.6426 22.6386 11.4279 22.6339 11.199C22.615 10.5408 22.582 9.88498 22.5301 9.26687C22.4593 8.41521 22.3555 7.7051 22.214 7.17193C22.0646 6.61552 21.7718 6.10806 21.3648 5.70027C20.9579 5.29249 20.451 4.99866 19.8949 4.84815C19.2272 4.66885 17.9203 4.55797 16.0801 4.48956C15.2049 4.45653 14.2683 4.43529 13.3317 4.4235C13.0038 4.41878 12.6994 4.41642 12.4258 4.41406H11.7322C11.4585 4.41642 11.1542 4.41878 10.8262 4.4235C9.88966 4.43529 8.95307 4.45653 8.07782 4.48956C6.23766 4.56033 4.92832 4.67121 4.26304 4.84815C3.70675 4.99829 3.19969 5.29199 2.79267 5.69984C2.38566 6.10768 2.09298 6.61534 1.94397 7.17193C1.80007 7.7051 1.69862 8.41521 1.62785 9.26687C1.57594 9.88498 1.54292 10.5408 1.52404 11.199C1.51697 11.4279 1.51461 11.6426 1.51225 11.8337C1.51225 11.9021 1.50989 11.961 1.50989 12.0129V12.1451C1.50989 12.197 1.50989 12.2559 1.51225 12.3244C1.51461 12.5155 1.51932 12.7301 1.52404 12.959C1.54292 13.6172 1.57594 14.273 1.62785 14.8911C1.69862 15.7428 1.80242 16.4529 1.94397 16.9861C2.24595 18.1161 3.133 19.0079 4.26304 19.3099C4.92832 19.4892 6.23766 19.6 8.07782 19.6685C8.95307 19.7015 9.88966 19.7227 10.8262 19.7345C11.1542 19.7392 11.4585 19.7416 11.7322 19.7439H12.4258C12.6994 19.7416 13.0038 19.7392 13.3317 19.7345C14.2683 19.7227 15.2049 19.7015 16.0801 19.6685C17.9203 19.5977 19.2296 19.4868 19.8949 19.3099C21.0249 19.0079 21.912 18.1185 22.214 16.9861C22.3579 16.4529 22.4593 15.7428 22.5301 14.8911C22.582 14.273 22.615 13.6172 22.6339 12.959C22.641 12.7301 22.6433 12.5155 22.6457 12.3244C22.6457 12.2559 22.648 12.197 22.648 12.1451V12.0129V12.0129ZM20.9494 12.1356C20.9494 12.1852 20.9494 12.2394 20.9471 12.3031C20.9447 12.4871 20.94 12.69 20.9353 12.9094C20.9188 13.537 20.8857 14.1645 20.8362 14.7472C20.7725 15.5069 20.6829 16.1297 20.572 16.5473C20.4257 17.0922 19.9963 17.524 19.4537 17.6679C18.9583 17.8 17.7103 17.9062 16.0141 17.9699C15.1553 18.0029 14.2305 18.0241 13.3081 18.0359C12.9849 18.0406 12.6853 18.043 12.4163 18.043H11.7416L10.8498 18.0359C9.9274 18.0241 9.00497 18.0029 8.14387 17.9699C6.44763 17.9038 5.19727 17.8 4.7042 17.6679C4.16159 17.5216 3.73223 17.0922 3.58596 16.5473C3.47508 16.1297 3.38543 15.5069 3.32173 14.7472C3.27219 14.1645 3.24152 13.537 3.22264 12.9094C3.21557 12.69 3.21321 12.4848 3.21085 12.3031C3.21085 12.2394 3.20849 12.1828 3.20849 12.1356V12.0224C3.20849 11.9728 3.20849 11.9186 3.21085 11.8549C3.21321 11.6709 3.21793 11.468 3.22264 11.2486C3.23916 10.621 3.27219 9.9935 3.32173 9.41078C3.38543 8.65113 3.47508 8.02831 3.58596 7.61074C3.73223 7.06577 4.16159 6.63404 4.7042 6.49013C5.19963 6.35802 6.44763 6.25186 8.14387 6.18816C9.00261 6.15513 9.9274 6.1339 10.8498 6.1221C11.173 6.11738 11.4727 6.11502 11.7416 6.11502H12.4163L13.3081 6.1221C14.2305 6.1339 15.153 6.15513 16.0141 6.18816C17.7103 6.25421 18.9607 6.35802 19.4537 6.49013C19.9963 6.6364 20.4257 7.06577 20.572 7.61074C20.6829 8.02831 20.7725 8.65113 20.8362 9.41078C20.8857 9.9935 20.9164 10.621 20.9353 11.2486C20.9424 11.468 20.9447 11.6732 20.9471 11.8549C20.9471 11.9186 20.9494 11.9752 20.9494 12.0224V12.1356ZM9.97931 15.2403L15.4526 12.0554L9.97931 8.91772V15.2403Z" fill="white"/>
</svg>
