<svg width="25" height="26" viewBox="0 0 25 26" fill="none" xmlns="http://www.w3.org/2000/svg">
<path d="M22.2837 6.92042C21.5819 7.23183 20.8181 7.45596 20.0314 7.54324C20.8482 7.04413 21.4598 6.25561 21.7516 5.32563C20.9851 5.7946 20.1455 6.12346 19.2699 6.2976C18.9039 5.89519 18.4613 5.57461 17.9696 5.35584C17.4779 5.13707 16.9477 5.02479 16.412 5.02601C14.2445 5.02601 12.5014 6.83313 12.5014 9.05075C12.5014 9.36216 12.5381 9.67357 12.5977 9.97319C9.35219 9.79861 6.45762 8.20381 4.53326 5.76207C4.18262 6.37809 3.99887 7.07949 4.00114 7.79332C4.00114 9.18994 4.69152 10.4214 5.7443 11.1457C5.12388 11.1206 4.51799 10.9452 3.97591 10.6338V10.6833C3.97591 12.639 5.31998 14.2598 7.11131 14.6325C6.77497 14.7224 6.42897 14.7684 6.08147 14.7694C5.82687 14.7694 5.58604 14.7434 5.34291 14.708C5.83834 16.3028 7.28104 17.4612 8.99897 17.4989C7.6549 18.5818 5.97137 19.2188 4.14334 19.2188C3.81535 19.2188 3.51259 19.207 3.19836 19.1692C4.93235 20.3134 6.98975 20.974 9.2054 20.974C16.3982 20.974 20.3341 14.8449 20.3341 9.52495C20.3341 9.35037 20.3341 9.17579 20.3227 9.00121C21.0841 8.42793 21.7516 7.71782 22.2837 6.92042Z" fill="#08090A"/>
</svg>
