<svg width="25" height="26" viewBox="0 0 25 26" fill="none" xmlns="http://www.w3.org/2000/svg">
<path d="M23.1337 12.9339C23.1337 12.882 23.1337 12.8231 23.1313 12.7546C23.129 12.5635 23.1243 12.3489 23.1195 12.12C23.1007 11.4618 23.0676 10.806 23.0157 10.1879C22.945 9.3362 22.8412 8.62609 22.6996 8.09292C22.5502 7.53651 22.2574 7.02905 21.8505 6.62126C21.4435 6.21348 20.9367 5.91965 20.3806 5.76914C19.7129 5.58984 18.4059 5.47896 16.5658 5.41055C15.6905 5.37752 14.7539 5.35628 13.8173 5.34449C13.4894 5.33977 13.1851 5.33741 12.9114 5.33505H12.2178C11.9442 5.33741 11.6398 5.33977 11.3119 5.34449C10.3753 5.35628 9.43872 5.37752 8.56347 5.41055C6.72332 5.48132 5.41398 5.5922 4.74869 5.76914C4.19241 5.91928 3.68535 6.21298 3.27833 6.62083C2.87131 7.02867 2.57864 7.53633 2.42963 8.09292C2.28572 8.62609 2.18428 9.3362 2.1135 10.1879C2.0616 10.806 2.02857 11.4618 2.0097 12.12C2.00262 12.3489 2.00026 12.5635 1.9979 12.7546C1.9979 12.8231 1.99554 12.882 1.99554 12.9339V13.0661C1.99554 13.118 1.99554 13.1769 1.9979 13.2453C2.00026 13.4364 2.00498 13.6511 2.0097 13.88C2.02857 14.5382 2.0616 15.194 2.1135 15.8121C2.18428 16.6638 2.28808 17.3739 2.42963 17.9071C2.73161 19.0371 3.61865 19.9289 4.74869 20.2308C5.41398 20.4101 6.72332 20.521 8.56347 20.5894C9.43872 20.6225 10.3753 20.6437 11.3119 20.6555C11.6398 20.6602 11.9442 20.6626 12.2178 20.6649H12.9114C13.1851 20.6626 13.4894 20.6602 13.8173 20.6555C14.7539 20.6437 15.6905 20.6225 16.5658 20.5894C18.4059 20.5187 19.7153 20.4078 20.3806 20.2308C21.5106 19.9289 22.3976 19.0395 22.6996 17.9071C22.8435 17.3739 22.945 16.6638 23.0157 15.8121C23.0676 15.194 23.1007 14.5382 23.1195 13.88C23.1266 13.6511 23.129 13.4364 23.1313 13.2453C23.1313 13.1769 23.1337 13.118 23.1337 13.0661V12.9339V12.9339ZM21.4351 13.0566C21.4351 13.1062 21.4351 13.1604 21.4327 13.2241C21.4304 13.4081 21.4257 13.611 21.4209 13.8304C21.4044 14.458 21.3714 15.0855 21.3219 15.6682C21.2582 16.4279 21.1685 17.0507 21.0576 17.4683C20.9114 18.0132 20.482 18.445 19.9394 18.5889C19.444 18.721 18.196 18.8271 16.4997 18.8908C15.641 18.9239 14.7162 18.9451 13.7937 18.9569C13.4705 18.9616 13.1709 18.964 12.902 18.964H12.2273L11.3355 18.9569C10.4131 18.9451 9.49063 18.9239 8.62953 18.8908C6.93329 18.8248 5.68293 18.721 5.18986 18.5889C4.64725 18.4426 4.21788 18.0132 4.07161 17.4683C3.96073 17.0507 3.87108 16.4279 3.80739 15.6682C3.75784 15.0855 3.72717 14.458 3.7083 13.8304C3.70122 13.611 3.69886 13.4058 3.69651 13.2241C3.69651 13.1604 3.69415 13.1038 3.69415 13.0566V12.9434C3.69415 12.8938 3.69415 12.8396 3.69651 12.7759C3.69886 12.5919 3.70358 12.389 3.7083 12.1696C3.72482 11.542 3.75784 10.9145 3.80739 10.3318C3.87108 9.57212 3.96073 8.9493 4.07161 8.53173C4.21788 7.98676 4.64725 7.55503 5.18986 7.41112C5.68529 7.27901 6.93329 7.17285 8.62953 7.10915C9.48827 7.07612 10.4131 7.05489 11.3355 7.04309C11.6587 7.03837 11.9583 7.03601 12.2273 7.03601H12.902L13.7937 7.04309C14.7162 7.05489 15.6386 7.07612 16.4997 7.10915C18.196 7.1752 19.4463 7.27901 19.9394 7.41112C20.482 7.55739 20.9114 7.98676 21.0576 8.53173C21.1685 8.9493 21.2582 9.57212 21.3219 10.3318C21.3714 10.9145 21.4021 11.542 21.4209 12.1696C21.428 12.389 21.4304 12.5942 21.4327 12.7759C21.4327 12.8396 21.4351 12.8962 21.4351 12.9434V13.0566ZM10.465 16.1613L15.9382 12.9764L10.465 9.83871V16.1613Z" fill="#08090A"/>
</svg>
