<svg width="25" height="25" viewBox="0 0 25 25" fill="none" xmlns="http://www.w3.org/2000/svg">
<path d="M22.7796 12.0129C22.7796 11.961 22.7796 11.9021 22.7772 11.8337C22.7749 11.6426 22.7702 11.4279 22.7654 11.199C22.7466 10.5408 22.7135 9.88498 22.6616 9.26687C22.5909 8.41521 22.4871 7.7051 22.3455 7.17193C22.1961 6.61552 21.9033 6.10806 21.4964 5.70027C21.0894 5.29249 20.5826 4.99866 20.0265 4.84815C19.3588 4.66885 18.0518 4.55797 16.2117 4.48956C15.3364 4.45653 14.3998 4.43529 13.4632 4.4235C13.1353 4.41878 12.831 4.41642 12.5573 4.41406H11.8637C11.5901 4.41642 11.2857 4.41878 10.9578 4.4235C10.0212 4.43529 9.08462 4.45653 8.20937 4.48956C6.36922 4.56033 5.05988 4.67121 4.3946 4.84815C3.83831 4.99829 3.33125 5.29199 2.92423 5.69984C2.51721 6.10768 2.22454 6.61534 2.07553 7.17193C1.93162 7.7051 1.83018 8.41521 1.7594 9.26687C1.7075 9.88498 1.67447 10.5408 1.6556 11.199C1.64852 11.4279 1.64616 11.6426 1.6438 11.8337C1.6438 11.9021 1.64144 11.961 1.64144 12.0129V12.1451C1.64144 12.197 1.64144 12.2559 1.6438 12.3244C1.64616 12.5155 1.65088 12.7301 1.6556 12.959C1.67447 13.6172 1.7075 14.273 1.7594 14.8911C1.83018 15.7428 1.93398 16.4529 2.07553 16.9861C2.37751 18.1161 3.26455 19.0079 4.3946 19.3099C5.05988 19.4892 6.36922 19.6 8.20937 19.6685C9.08462 19.7015 10.0212 19.7227 10.9578 19.7345C11.2857 19.7392 11.5901 19.7416 11.8637 19.7439H12.5573C12.831 19.7416 13.1353 19.7392 13.4632 19.7345C14.3998 19.7227 15.3364 19.7015 16.2117 19.6685C18.0518 19.5977 19.3612 19.4868 20.0265 19.3099C21.1565 19.0079 22.0435 18.1185 22.3455 16.9861C22.4894 16.4529 22.5909 15.7428 22.6616 14.8911C22.7135 14.273 22.7466 13.6172 22.7654 12.959C22.7725 12.7301 22.7749 12.5155 22.7772 12.3244C22.7772 12.2559 22.7796 12.197 22.7796 12.1451V12.0129V12.0129ZM21.081 12.1356C21.081 12.1852 21.081 12.2394 21.0786 12.3031C21.0763 12.4871 21.0716 12.69 21.0668 12.9094C21.0503 13.537 21.0173 14.1645 20.9678 14.7472C20.9041 15.5069 20.8144 16.1297 20.7035 16.5473C20.5573 17.0922 20.1279 17.524 19.5853 17.6679C19.0899 17.8 17.8419 17.9062 16.1456 17.9699C15.2869 18.0029 14.3621 18.0241 13.4397 18.0359C13.1164 18.0406 12.8168 18.043 12.5479 18.043H11.8732L10.9814 18.0359C10.059 18.0241 9.13653 18.0029 8.27543 17.9699C6.57919 17.9038 5.32883 17.8 4.83576 17.6679C4.29315 17.5216 3.86378 17.0922 3.71751 16.5473C3.60663 16.1297 3.51698 15.5069 3.45329 14.7472C3.40374 14.1645 3.37308 13.537 3.3542 12.9094C3.34712 12.69 3.34477 12.4848 3.34241 12.3031C3.34241 12.2394 3.34005 12.1828 3.34005 12.1356V12.0224C3.34005 11.9728 3.34005 11.9186 3.34241 11.8549C3.34477 11.6709 3.34948 11.468 3.3542 11.2486C3.37072 10.621 3.40374 9.9935 3.45329 9.41078C3.51698 8.65113 3.60663 8.02831 3.71751 7.61074C3.86378 7.06577 4.29315 6.63404 4.83576 6.49013C5.33119 6.35802 6.57919 6.25186 8.27543 6.18816C9.13417 6.15513 10.059 6.1339 10.9814 6.1221C11.3046 6.11738 11.6042 6.11502 11.8732 6.11502H12.5479L13.4397 6.1221C14.3621 6.1339 15.2845 6.15513 16.1456 6.18816C17.8419 6.25421 19.0922 6.35802 19.5853 6.49013C20.1279 6.6364 20.5573 7.06577 20.7035 7.61074C20.8144 8.02831 20.9041 8.65113 20.9678 9.41078C21.0173 9.9935 21.048 10.621 21.0668 11.2486C21.0739 11.468 21.0763 11.6732 21.0786 11.8549C21.0786 11.9186 21.081 11.9752 21.081 12.0224V12.1356ZM10.1109 15.2403L15.5841 12.0554L10.1109 8.91772V15.2403Z" fill="white"/>
</svg>
