<svg width="21" height="21" viewBox="0 0 21 21" fill="none" xmlns="http://www.w3.org/2000/svg">
<path fill-rule="evenodd" clip-rule="evenodd" d="M17.0104 3.98266C16.161 3.13284 15.1519 2.45943 14.0412 2.00117C12.9305 1.54292 11.7401 1.30889 10.5386 1.31254C5.49609 1.31254 1.39125 5.39688 1.3892 10.418C1.38697 12.0169 1.80842 13.5877 2.61064 14.9707L1.3125 19.6875L6.1626 18.4214C7.50513 19.1487 9.00799 19.5293 10.5349 19.5288H10.5386C15.5806 19.5288 19.685 15.4441 19.6875 10.4233C19.6906 9.22592 19.4554 8.03984 18.9958 6.93412C18.5363 5.8284 17.8614 4.82512 17.0104 3.98266V3.98266ZM10.5386 17.992H10.5353C9.17412 17.9924 7.83772 17.6281 6.66504 16.937L6.38736 16.773L3.5093 17.5244L4.27752 14.7316L4.09664 14.4445C3.33555 13.2396 2.93231 11.8432 2.93385 10.418C2.93385 6.24549 6.34676 2.85063 10.5414 2.85063C12.5536 2.84703 14.4849 3.64286 15.9104 5.06306C17.3359 6.48326 18.1389 8.41153 18.1429 10.4238C18.1412 14.5967 14.7299 17.992 10.5386 17.992V17.992ZM14.7094 12.324C14.481 12.21 13.3559 11.6596 13.1476 11.5837C12.9392 11.5078 12.7854 11.4697 12.6332 11.6977C12.4811 11.9257 12.0426 12.436 11.9093 12.5898C11.776 12.7436 11.6427 12.7604 11.4142 12.6464C11.1858 12.5324 10.4487 12.2924 9.57551 11.5172C8.89588 10.9139 8.43732 10.169 8.30402 9.94141C8.17072 9.71377 8.28967 9.59032 8.4041 9.47711C8.50705 9.37498 8.63256 9.21133 8.74699 9.07844C8.86143 8.94555 8.89957 8.85039 8.97545 8.69864C9.05133 8.54688 9.01359 8.41399 8.95658 8.30037C8.89957 8.18676 8.44225 7.06662 8.25193 6.61094C8.06613 6.16715 7.87787 6.22745 7.7376 6.22047C7.6043 6.21391 7.45049 6.21227 7.29914 6.21227C7.18344 6.21528 7.0696 6.24211 6.96474 6.29109C6.85987 6.34006 6.76622 6.41013 6.68965 6.49692C6.48006 6.72496 5.88943 7.27621 5.88943 8.39512C5.88943 9.51403 6.70975 10.5968 6.82295 10.7486C6.93615 10.9004 8.43486 13.1985 10.728 14.1841C11.1539 14.3664 11.589 14.5263 12.0315 14.6631C12.5791 14.8362 13.0774 14.812 13.4712 14.7534C13.9104 14.6881 14.8247 14.2029 15.0146 13.6714C15.2045 13.1398 15.2049 12.6845 15.1479 12.5898C15.0909 12.495 14.9383 12.4376 14.7094 12.324V12.324Z" fill="white"/>
</svg>
