<svg width="103" height="103" viewBox="0 0 103 103" fill="none" xmlns="http://www.w3.org/2000/svg">
<circle cx="3.21875" cy="3.21875" r="3.21875" fill="#3E3E3E"/>
<circle cx="22.5312" cy="3.21875" r="3.21875" fill="#3E3E3E"/>
<circle cx="41.8438" cy="3.21875" r="3.21875" fill="#3E3E3E"/>
<circle cx="61.1562" cy="3.21875" r="3.21875" fill="#3E3E3E"/>
<circle cx="80.4688" cy="3.21875" r="3.21875" fill="#3E3E3E"/>
<circle cx="99.7812" cy="3.21875" r="3.21875" fill="#3E3E3E"/>
<circle cx="3.21875" cy="22.5312" r="3.21875" fill="#3E3E3E"/>
<circle cx="22.5312" cy="22.5312" r="3.21875" fill="#3E3E3E"/>
<circle cx="41.8438" cy="22.5312" r="3.21875" fill="#3E3E3E"/>
<circle cx="61.1562" cy="22.5312" r="3.21875" fill="#3E3E3E"/>
<circle cx="80.4688" cy="22.5312" r="3.21875" fill="#3E3E3E"/>
<circle cx="99.7812" cy="22.5312" r="3.21875" fill="#3E3E3E"/>
<circle cx="3.21875" cy="41.8438" r="3.21875" fill="#3E3E3E"/>
<circle cx="22.5312" cy="41.8438" r="3.21875" fill="#3E3E3E"/>
<circle cx="41.8438" cy="41.8438" r="3.21875" fill="#3E3E3E"/>
<circle cx="61.1562" cy="41.8438" r="3.21875" fill="#3E3E3E"/>
<circle cx="80.4688" cy="41.8438" r="3.21875" fill="#3E3E3E"/>
<circle cx="99.7812" cy="41.8438" r="3.21875" fill="#3E3E3E"/>
<circle cx="3.21875" cy="61.1562" r="3.21875" fill="#3E3E3E"/>
<circle cx="22.5312" cy="61.1562" r="3.21875" fill="#3E3E3E"/>
<circle cx="41.8438" cy="61.1562" r="3.21875" fill="#3E3E3E"/>
<circle cx="61.1562" cy="61.1562" r="3.21875" fill="#3E3E3E"/>
<circle cx="80.4688" cy="61.1562" r="3.21875" fill="#3E3E3E"/>
<circle cx="99.7812" cy="61.1562" r="3.21875" fill="#3E3E3E"/>
<circle cx="3.21875" cy="80.4688" r="3.21875" fill="#3E3E3E"/>
<circle cx="22.5312" cy="80.4688" r="3.21875" fill="#3E3E3E"/>
<circle cx="41.8438" cy="80.4688" r="3.21875" fill="#3E3E3E"/>
<circle cx="61.1562" cy="80.4688" r="3.21875" fill="#3E3E3E"/>
<circle cx="80.4688" cy="80.4688" r="3.21875" fill="#3E3E3E"/>
<circle cx="99.7812" cy="80.4688" r="3.21875" fill="#3E3E3E"/>
<circle cx="3.21875" cy="99.7812" r="3.21875" fill="#3E3E3E"/>
<circle cx="22.5312" cy="99.7812" r="3.21875" fill="#3E3E3E"/>
<circle cx="41.8438" cy="99.7812" r="3.21875" fill="#3E3E3E"/>
<circle cx="61.1562" cy="99.7812" r="3.21875" fill="#3E3E3E"/>
<circle cx="80.4688" cy="99.7812" r="3.21875" fill="#3E3E3E"/>
<circle cx="99.7812" cy="99.7812" r="3.21875" fill="#3E3E3E"/>
</svg>
