<svg width="18" height="23" viewBox="0 0 18 23" fill="none" xmlns="http://www.w3.org/2000/svg">
<path fill-rule="evenodd" clip-rule="evenodd" d="M12.3082 2.6026L12.3089 3.30733C14.3749 3.51029 15.7396 5.27495 15.7418 7.98113L15.75 15.9024C15.7529 18.8528 14.2742 20.6682 11.9039 20.6729L6.11391 20.6823C3.7584 20.6861 2.26111 18.8275 2.25815 15.8685L2.25 8.04033C2.24704 5.31629 3.56364 3.55634 5.62963 3.31861L5.62889 2.61387C5.62815 2.20043 5.87251 1.8894 6.19833 1.8894C6.52415 1.88846 6.76851 2.19855 6.76925 2.61199L6.76999 3.26974L11.1685 3.26223L11.1678 2.60447C11.1671 2.19103 11.4114 1.88095 11.7372 1.88001C12.0557 1.87907 12.3074 2.18915 12.3082 2.6026ZM3.3911 8.33068L14.6022 8.31188V7.98301C14.5704 5.96277 13.7617 4.90285 12.3104 4.74499L12.3111 5.46852C12.3111 5.87256 12.0601 6.19298 11.7417 6.19298C11.4159 6.19392 11.1708 5.87444 11.1708 5.47039L11.17 4.70928L6.77147 4.7168L6.77221 5.47697C6.77221 5.88196 6.52858 6.20144 6.20277 6.20144C5.87695 6.20238 5.63184 5.88384 5.63184 5.47885L5.6311 4.75532C4.18714 4.93668 3.38814 6.00035 3.39036 8.03845L3.3911 8.33068ZM11.4299 12.6014V12.6117C11.4373 13.0439 11.7187 13.3719 12.0601 13.3625C12.3933 13.3521 12.6591 12.9941 12.6517 12.5619C12.6362 12.1485 12.3689 11.8111 12.0364 11.8121C11.6957 11.8215 11.4292 12.1691 11.4299 12.6014ZM12.0416 16.8204C11.701 16.811 11.4262 16.4549 11.4255 16.0226C11.4181 15.5904 11.6913 15.2324 12.032 15.222H12.0394C12.3874 15.222 12.6695 15.5782 12.6695 16.0198C12.6703 16.4614 12.3889 16.8194 12.0416 16.8204ZM8.37909 12.6164C8.3939 13.0486 8.67603 13.386 9.01666 13.3672C9.34988 13.3474 9.61572 12.9904 9.60091 12.5581C9.59276 12.1353 9.31878 11.8064 8.98556 11.8074C8.64493 11.8262 8.37835 12.1842 8.37909 12.6164ZM9.0196 16.7781C8.67897 16.7969 8.39758 16.4596 8.38203 16.0273C8.38203 15.5951 8.64787 15.238 8.9885 15.2183C9.32172 15.2173 9.59645 15.5462 9.60385 15.9681C9.6194 16.4013 9.35282 16.7584 9.0196 16.7781ZM5.32824 12.6493C5.34305 13.0815 5.62517 13.4198 5.9658 13.4001C6.29903 13.3813 6.56486 13.0233 6.54931 12.591C6.54191 12.1682 6.26793 11.8393 5.93396 11.8403C5.59333 11.8591 5.3275 12.2171 5.32824 12.6493ZM5.96878 16.7828C5.62815 16.8025 5.34676 16.4643 5.33121 16.032C5.33047 15.5998 5.59705 15.2418 5.93767 15.223C6.2709 15.222 6.54562 15.5509 6.55303 15.9738C6.56858 16.406 6.30274 16.764 5.96878 16.7828Z" fill="#F57400"/>
</svg>
