<svg width="105" height="105" viewBox="0 0 105 105" fill="none" xmlns="http://www.w3.org/2000/svg">
<circle cx="52.4747" cy="52.2017" r="51.8908" fill="#BEBDA7" fill-opacity="0.3"/>
<path fill-rule="evenodd" clip-rule="evenodd" d="M68.5557 55.0019C68.5557 56.6289 69.8917 57.9526 71.5337 57.9526C72.3617 57.9526 73.0337 58.6185 73.0337 59.4389V64.7916C73.0337 69.3178 69.3177 72.9999 64.7497 72.9999H41.3197C36.7517 72.9999 33.0337 69.3178 33.0337 64.7916V59.4389C33.0337 58.6185 33.7057 57.9526 34.5337 57.9526C36.1777 57.9526 37.5137 56.6289 37.5137 55.0019C37.5137 53.4165 36.2317 52.2235 34.5337 52.2235C34.1357 52.2235 33.7557 52.0669 33.4737 51.7875C33.1917 51.5081 33.0337 51.1296 33.0337 50.7372L33.0377 45.2102C33.0377 40.6839 36.7537 36.9999 41.3217 36.9999H64.7457C69.3137 36.9999 73.0317 40.6839 73.0317 45.2102L73.0337 50.5648C73.0337 50.9572 72.8757 51.3377 72.5957 51.6151C72.3137 51.8945 71.9337 52.0511 71.5337 52.0511C69.8917 52.0511 68.5557 53.3749 68.5557 55.0019ZM57.5377 56.296L59.8957 54.021C60.3057 53.6286 60.4477 53.0499 60.2697 52.5148C60.0937 51.9798 59.6337 51.5993 59.0777 51.522L55.8197 51.0503L54.3617 48.1253C54.1117 47.622 53.6037 47.3089 53.0377 47.3069H53.0337C52.4697 47.3069 51.9617 47.62 51.7077 48.1233L50.2497 51.0503L46.9977 51.52C46.4357 51.5993 45.9757 51.9798 45.7977 52.5148C45.6217 53.0499 45.7637 53.6286 46.1717 54.021L48.5297 56.296L47.9737 59.5123C47.8777 60.0672 48.1037 60.6181 48.5637 60.9491C48.8237 61.1334 49.1257 61.2285 49.4317 61.2285C49.6657 61.2285 49.9017 61.171 50.1177 61.0581L53.0337 59.5401L55.9437 61.0541C56.4477 61.3216 57.0457 61.28 57.5037 60.9471C57.9657 60.6181 58.1917 60.0672 58.0957 59.5123L57.5377 56.296Z" fill="#F57400"/>
</svg>
