<svg width="40" height="40" viewBox="0 0 40 40" fill="none" xmlns="http://www.w3.org/2000/svg">
<g clip-path="url(#clip0_196_3653)">
<path fill-rule="evenodd" clip-rule="evenodd" d="M0 19.8722C0 29.6972 7.13569 37.8671 16.4683 39.5238V25.2508H11.5278V19.7619H16.4683V15.3698C16.4683 10.4293 19.6516 7.68573 24.154 7.68573C25.5801 7.68573 27.1183 7.90476 28.5444 8.12379V13.1746H26.0198C23.6039 13.1746 23.0556 14.3817 23.0556 15.9199V19.7619H28.3254L27.4476 25.2508H23.0556V39.5238C32.3881 37.8671 39.5238 29.6988 39.5238 19.8722C39.5238 8.94226 30.631 0 19.7619 0C8.89286 0 0 8.94226 0 19.8722Z" fill="white"/>
</g>
<defs>
<clipPath id="clip0_196_3653">
<rect width="39.5238" height="39.5238" fill="white"/>
</clipPath>
</defs>
</svg>
