<svg width="18" height="23" viewBox="0 0 18 23" fill="none" xmlns="http://www.w3.org/2000/svg">
<path fill-rule="evenodd" clip-rule="evenodd" d="M11.8874 2.35074C12.3606 2.35074 12.8331 2.43441 13.2824 2.62337C16.0506 3.75151 17.0481 7.55898 16.2149 10.887C15.7424 12.5877 14.9699 14.1398 13.9581 15.408C12.5099 17.166 10.9206 18.7266 9.20986 20.071L9.02236 20.213L8.82736 20.0616C7.11061 18.7266 5.51236 17.166 4.05061 15.3986C3.04561 14.1304 2.27236 12.5877 1.79236 10.887C0.94486 7.55898 1.94236 3.75151 4.74061 2.60363C4.95811 2.50962 5.18236 2.44381 5.40736 2.40714H5.49736C5.70811 2.3686 5.91736 2.35074 6.12736 2.35074H6.20986C6.68236 2.3686 7.13986 2.47201 7.58311 2.66097H7.62736C7.65736 2.67884 7.67986 2.69858 7.69486 2.71644C7.86061 2.78319 8.01736 2.8584 8.16736 2.96181L8.45236 3.12163C8.52123 3.16767 8.59853 3.23802 8.66533 3.29882C8.70766 3.33734 8.74577 3.37202 8.77486 3.39427C8.7871 3.40332 8.79954 3.41242 8.81208 3.42159C8.87638 3.46865 8.94337 3.51766 8.99986 3.57195C9.83311 2.77379 10.8449 2.34133 11.8874 2.35074ZM13.8824 9.11958C14.1899 9.10924 14.4524 8.79994 14.4749 8.40415V8.29227C14.4974 6.97517 13.8606 5.78216 12.8924 5.3215C12.5849 5.18895 12.2474 5.39671 12.1349 5.79156C12.0299 6.18641 12.1949 6.61887 12.5099 6.75894C12.9906 6.98457 13.3124 7.57779 13.3124 8.23493V8.26407C13.2981 8.47936 13.3499 8.68712 13.4549 8.84694C13.5599 9.00676 13.7174 9.09983 13.8824 9.11958Z" fill="#F57400"/>
</svg>
