<svg width="40" height="41" viewBox="0 0 40 41" fill="none" xmlns="http://www.w3.org/2000/svg">
<path d="M26.4138 20.3425C26.4138 21.9804 25.7632 23.5511 24.605 24.7092C23.4469 25.8674 21.8761 26.518 20.2382 26.518C18.6003 26.518 17.0296 25.8674 15.8714 24.7092C14.7133 23.5511 14.0626 21.9804 14.0626 20.3425C14.0626 19.9905 14.0997 19.6468 14.1635 19.3133H12.0041V27.5411C12.0041 28.1133 12.4673 28.5765 13.0395 28.5765H27.439C27.7132 28.5759 27.9761 28.4666 28.1698 28.2725C28.3635 28.0784 28.4723 27.8153 28.4723 27.5411V19.3133H26.3129C26.3768 19.6468 26.4138 19.9905 26.4138 20.3425ZM20.2382 24.4595C20.779 24.4594 21.3145 24.3527 21.8141 24.1456C22.3136 23.9386 22.7675 23.6351 23.1498 23.2526C23.5322 22.8702 23.8354 22.4161 24.0422 21.9164C24.249 21.4168 24.3554 20.8813 24.3553 20.3405C24.3551 19.7997 24.2485 19.2642 24.0414 18.7647C23.8343 18.2651 23.5309 17.8112 23.1484 17.4289C22.7659 17.0466 22.3118 16.7434 21.8122 16.5366C21.3125 16.3297 20.777 16.2234 20.2362 16.2235C19.144 16.2238 18.0966 16.6579 17.3245 17.4304C16.5524 18.2028 16.1188 19.2504 16.1191 20.3425C16.1194 21.4347 16.5535 22.482 17.326 23.2541C18.0985 24.0262 19.146 24.4598 20.2382 24.4595ZM25.1787 16.0197H27.6469C27.8109 16.0197 27.9681 15.9547 28.0843 15.839C28.2004 15.7232 28.2659 15.5661 28.2665 15.4022V12.934C28.2665 12.7697 28.2012 12.6121 28.085 12.4959C27.9688 12.3797 27.8112 12.3144 27.6469 12.3144H25.1787C25.0144 12.3144 24.8568 12.3797 24.7406 12.4959C24.6244 12.6121 24.5591 12.7697 24.5591 12.934V15.4022C24.5611 15.7418 24.839 16.0197 25.1787 16.0197ZM20.2382 0.581055C14.997 0.581055 9.97052 2.66306 6.26444 6.36906C2.55837 10.0751 0.476318 15.1015 0.476318 20.3425C0.476318 25.5836 2.55837 30.61 6.26444 34.316C9.97052 38.022 14.997 40.104 20.2382 40.104C22.8334 40.104 25.4031 39.5929 27.8008 38.5998C30.1984 37.6066 32.3769 36.151 34.212 34.316C36.0471 32.481 37.5027 30.3025 38.4958 27.9049C39.489 25.5073 40.0001 22.9376 40.0001 20.3425C40.0001 17.7474 39.489 15.1777 38.4958 12.7801C37.5027 10.3826 36.0471 8.20408 34.212 6.36906C32.3769 4.53403 30.1984 3.07841 27.8008 2.08531C25.4031 1.0922 22.8334 0.581055 20.2382 0.581055ZM30.5309 28.348C30.5309 29.6057 29.5016 30.635 28.2438 30.635H12.2326C10.9748 30.635 9.94556 29.6057 9.94556 28.348V12.3371C9.94556 11.0793 10.9748 10.0501 12.2326 10.0501H28.2438C29.5016 10.0501 30.5309 11.0793 30.5309 12.3371V28.348Z" fill="white"/>
</svg>
