<svg width="105" height="105" viewBox="0 0 105 105" fill="none" xmlns="http://www.w3.org/2000/svg">
<circle cx="52.4915" cy="52.2017" r="51.8908" fill="#BEBDA7" fill-opacity="0.3"/>
<path fill-rule="evenodd" clip-rule="evenodd" d="M63.3596 39.8199C63.3596 37.1599 65.5196 34.9999 68.1796 34.9999C70.8396 34.9999 72.9996 37.1599 72.9996 39.8199C72.9996 42.4799 70.8396 44.6399 68.1796 44.6399C65.5196 44.6399 63.3596 42.4799 63.3596 39.8199ZM55.6594 60.5184L61.4394 53.0604L61.3594 53.1004C61.6794 52.6604 61.7394 52.1004 61.5194 51.6004C61.3014 51.1004 60.8194 50.7604 60.3014 50.7204C59.7594 50.6604 59.2214 50.9004 58.8994 51.3404L54.0614 57.6004L48.5194 53.2404C48.1794 52.9804 47.7794 52.8784 47.3794 52.9204C46.9814 52.9804 46.6214 53.1984 46.3794 53.5184L40.4614 61.2204L40.3394 61.4004C39.9994 62.0384 40.1594 62.8584 40.7594 63.3004C41.0394 63.4804 41.3394 63.6004 41.6794 63.6004C42.1414 63.6204 42.5794 63.3784 42.8594 63.0004L47.8794 56.5384L53.5794 60.8204L53.7594 60.9384C54.3994 61.2784 55.1994 61.1204 55.6594 60.5184ZM59.8994 38.5605C59.8194 39.0605 59.7794 39.5605 59.7794 40.0605C59.7794 44.5605 63.4194 48.1984 67.8994 48.1984C68.3994 48.1984 68.8794 48.1404 69.3794 48.0604V64.1984C69.3794 70.9804 65.3794 75.0004 58.5794 75.0004H43.8014C36.9994 75.0004 32.9994 70.9804 32.9994 64.1984V49.4004C32.9994 42.6005 36.9994 38.5605 43.8014 38.5605H59.8994Z" fill="#F57400"/>
</svg>
