<svg width="12" height="12" viewBox="0 0 12 12" fill="none" xmlns="http://www.w3.org/2000/svg">
<g id="Iconly/Bold/Search">
<g id="Search">
<path id="Search_2" fill-rule="evenodd" clip-rule="evenodd" d="M1 5.3346C1 2.94046 2.92017 0.999634 5.28882 0.999634C6.42628 0.999634 7.51716 1.45635 8.32147 2.26932C9.12578 3.08228 9.57764 4.18489 9.57764 5.3346C9.57764 7.72873 7.65747 9.66956 5.28882 9.66956C2.92017 9.66956 1 7.72873 1 5.3346ZM9.50668 8.82674L10.784 9.85781H10.8062C11.0646 10.119 11.0646 10.5425 10.8062 10.8037C10.5478 11.0649 10.1288 11.0649 9.87036 10.8037L8.81035 9.58883C8.71014 9.4879 8.65381 9.35078 8.65381 9.20779C8.65381 9.06479 8.71014 8.92768 8.81035 8.82674C9.00361 8.63479 9.31341 8.63479 9.50668 8.82674Z" fill="#F57400"/>
</g>
</g>
</svg>
