<svg width="105" height="105" viewBox="0 0 105 105" fill="none" xmlns="http://www.w3.org/2000/svg">
<circle cx="52.458" cy="52.2017" r="51.8908" fill="#BEBDA7" fill-opacity="0.3"/>
<path fill-rule="evenodd" clip-rule="evenodd" d="M73.0071 52.078C72.7364 52.341 72.3689 52.4914 71.982 52.4914C70.5507 52.4914 69.3901 53.6188 69.3901 54.9905C69.3901 56.3716 70.5371 57.4934 71.9549 57.5084C72.7538 57.5159 73.4327 58.0571 73.4327 58.8331V63.6528C73.4327 67.7097 70.0478 70.9999 65.8698 70.9999H59.5642C58.9124 70.9999 58.3843 70.4869 58.3843 69.8537V65.7949C58.3843 65.0057 57.746 64.3857 56.9336 64.3857C56.1406 64.3857 55.483 65.0057 55.483 65.7949V69.8537C55.483 70.4869 54.9549 70.9999 54.305 70.9999H40.9955C36.8369 70.9999 33.4327 67.7116 33.4327 63.6528V58.8331C33.4327 58.0571 34.1116 57.5159 34.9104 57.5084C36.3302 57.4934 37.4752 56.3716 37.4752 54.9905C37.4752 53.6564 36.3534 52.6417 34.8834 52.6417C34.4965 52.6417 34.129 52.4914 33.8582 52.2283C33.5874 51.9652 33.4327 51.6082 33.4327 51.2324V46.3657C33.4327 42.3145 36.8447 38.9999 41.0149 38.9999H54.305C54.9549 38.9999 55.483 39.5129 55.483 40.1461V44.9564C55.483 45.7268 56.1406 46.3657 56.9336 46.3657C57.746 46.3657 58.3843 45.7268 58.3843 44.9564V40.1461C58.3843 39.5129 58.9124 38.9999 59.5642 38.9999H65.8698C70.0478 38.9999 73.4327 42.2882 73.4327 46.3469V51.0821C73.4327 51.4579 73.2779 51.8149 73.0071 52.078ZM56.9336 60.7403C57.746 60.7403 58.3843 60.1015 58.3843 59.3311V51.8149C58.3843 51.0445 57.746 50.4056 56.9336 50.4056C56.1406 50.4056 55.483 51.0445 55.483 51.8149V59.3311C55.483 60.1015 56.1406 60.7403 56.9336 60.7403Z" fill="#F57400"/>
</svg>
