<svg width="40" height="41" viewBox="0 0 40 41" fill="none" xmlns="http://www.w3.org/2000/svg">
<path d="M23.1678 20.0129L18.7293 17.9418C18.342 17.762 18.0238 17.9636 18.0238 18.3924V22.2934C18.0238 22.7222 18.342 22.9238 18.7293 22.744L23.1659 20.6729C23.5552 20.4911 23.5552 20.1947 23.1678 20.0129ZM20 1.37146C9.52223 1.37146 1.02856 9.86513 1.02856 20.3429C1.02856 30.8206 9.52223 39.3143 20 39.3143C30.4778 39.3143 38.9714 30.8206 38.9714 20.3429C38.9714 9.86513 30.4778 1.37146 20 1.37146ZM20 28.05C10.289 28.05 10.119 27.1746 10.119 20.3429C10.119 13.5112 10.289 12.6357 20 12.6357C29.711 12.6357 29.8809 13.5112 29.8809 20.3429C29.8809 27.1746 29.711 28.05 20 28.05Z" fill="white"/>
</svg>
